#!OML:ASF E:\acrobat2\Project_11_07_03\Capture day 1\Session 1\Acrobat.ASF
:FULLY-SPECIFIED
:DEGREES
452
root 7.82618 18.1289 -2.72569 -169.591 -3.7335 -175.667
lowerback 5.03218 9.11079 2.69102
upperback 0.952032 11.8162 -7.71795
thorax 0.427427 5.86948 -9.96423
lowerneck 4.87303 23.2853 6.20021
upperneck 0.155942 31.3471 -9.57374
head 1.91599 15.7736 -3.25763
rclavicle -1.59028e-014 7.79236e-014
rhumerus -34.9293 2.88329 -84.551
rradius 52.8286
rwrist -4.45248
rhand -13.774 -23.2669
rfingers 7.12502
rthumb 12.347 -52.8824
lclavicle -1.59028e-014 7.79236e-014
lhumerus -38.3139 -60.3934 88.7213
lradius 80.3752
lwrist 20.5783
lhand -2.2226 -2.81199
lfingers 7.12502
lthumb 23.4599 25.7777
rfemur -13.3151 -5.31614 29.6355
rtibia 34.8151
rfoot -9.54106 -3.24015
rtoes -2.85311
lfemur -38.259 -0.21686 -12.5284
ltibia 51.1428
lfoot 19.2568 -4.04341
ltoes 25.8402
453
root 7.83192 18.1261 -2.60044 -169.779 -3.89705 -175.599
lowerback 5.08482 9.22415 2.85688
upperback 0.928098 11.9767 -7.76669
thorax 0.450594 5.95466 -10.1147
lowerneck 4.85452 23.2456 6.10605
upperneck 0.194496 31.2857 -9.52749
head 1.90322 15.7407 -3.23793
rclavicle 1.28017e-013 -5.88403e-014
rhumerus -34.983 2.95819 -84.5375
rradius 52.985
rwrist -4.45418
rhand -13.5338 -23.2624
rfingers 7.12502
rthumb 12.5786 -52.8637
lclavicle 1.28017e-013 -5.88403e-014
lhumerus -38.3913 -60.6006 88.6851
lradius 80.7781
lwrist 20.5168
lhand -2.29011 -2.58294
lfingers 7.12502
lthumb 23.3951 26.0151
rfemur -12.8304 -5.60591 29.6999
rtibia 35.5046
rfoot -8.60914 -2.92423
rtoes -2.91448
lfemur -38.189 -0.187281 -12.4569
ltibia 50.6204
lfoot 19.1089 -4.01989
ltoes 26.7086
454
root 7.84115 18.133 -2.47818 -169.955 -4.03928 -175.639
lowerback 5.14919 9.33958 2.89307
upperback 0.917275 12.1278 -7.82188
thorax 0.454328 6.03116 -10.2031
lowerneck 4.85271 23.1799 5.8989
upperneck 0.163911 31.1812 -9.54144
head 1.85423 15.6885 -3.2359
rclavicle -1.33583e-013 6.67916e-014
rhumerus -34.9924 2.98396 -84.4804
rradius 53.0877
rwrist -4.35716
rhand -13.4915 -22.8859
rfingers 7.12502
rthumb 12.6194 -52.4847
lclavicle -1.33583e-013 6.67916e-014
lhumerus -38.4509 -60.6748 88.7034
lradius 81.1457
lwrist 20.3566
lhand -2.81767 -3.00021
lfingers 7.12502
lthumb 22.8889 25.6613
rfemur -12.3994 -5.90669 29.6585
rtibia 36.1615
rfoot -6.83584 -2.91906
rtoes -0.878919
lfemur -38.0839 -0.220723 -12.5011
ltibia 50.0659
lfoot 18.9969 -4.17197
ltoes 26.2969
455
root 7.84767 18.1367 -2.35367 -170.099 -4.16335 -175.694
lowerback 5.10668 9.40242 2.90426
upperback 0.919666 12.205 -7.91059
thorax 0.519038 6.07126 -10.2943
lowerneck 5.21151 23.0839 6.20777
upperneck -0.0550816 31.0726 -9.85349
head 1.82238 15.6496 -3.41599
rclavicle 6.67916e-014 1.43125e-013
rhumerus -34.8428 3.14292 -84.5308
rradius 53.1128
rwrist -4.2868
rhand -13.3608 -22.9152
rfingers 7.12502
rthumb 12.7454 -52.5062
lclavicle 6.67916e-014 1.43125e-013
lhumerus -38.4905 -60.56 88.5305
lradius 81.5203
lwrist 20.234
lhand -3.88724 -4.16455
lfingers 7.12502
lthumb 21.8622 24.6204
rfemur -12.0495 -6.2648 29.5684
rtibia 36.8345
rfoot -4.95151 -2.87322
rtoes 1.29057
lfemur -38.0194 -0.288892 -12.577
ltibia 49.4942
lfoot 18.8883 -4.34252
ltoes 25.5771
456
root 7.84945 18.1349 -2.22327 -170.272 -4.36303 -175.546
lowerback 5.0159 9.43865 3.16648
upperback 0.953436 12.2772 -7.92206
thorax 0.678518 6.12084 -10.4248
lowerneck 4.98323 23.1662 6.44173
upperneck 0.232576 31.2058 -9.95588
head 2.02521 15.7052 -3.39646
rclavicle 5.48646e-014 -3.97569e-014
rhumerus -34.549 3.43035 -84.5016
rradius 52.9782
rwrist -4.3538
rhand -13.1393 -22.9959
rfingers 7.12502
rthumb 12.9589 -52.5735
lclavicle 5.48646e-014 -3.97569e-014
lhumerus -38.4193 -60.4563 88.3125
lradius 81.8699
lwrist 20.1415
lhand -4.38388 -4.63496
lfingers 7.12502
lthumb 21.3853 24.2049
rfemur -11.7422 -6.70647 29.6793
rtibia 37.5659
rfoot -3.25185 -2.90391
rtoes 2.64591
lfemur -37.9723 -0.33059 -12.4419
ltibia 48.9034
lfoot 18.8465 -4.58757
ltoes 24.7052
457
root 7.85228 18.1352 -2.08873 -170.438 -4.52904 -175.679
lowerback 5.08343 9.45572 3.16579
upperback 0.950474 12.2896 -8.00199
thorax 0.659832 6.12429 -10.5233
lowerneck 4.80608 23.2533 6.39918
upperneck 0.47705 31.3229 -9.94501
head 2.1384 15.753 -3.33709
rclavicle 1.00983e-013 -7.79236e-014
rhumerus -34.4918 3.79247 -84.4847
rradius 52.9876
rwrist -4.4561
rhand -12.8822 -22.8834
rfingers 7.12502
rthumb 13.2068 -52.4451
lclavicle 1.00983e-013 -7.79236e-014
lhumerus -38.4474 -60.2282 88.1974
lradius 82.2447
lwrist 19.9633
lhand -4.14639 -4.2711
lfingers 7.12502
lthumb 21.6134 24.5427
rfemur -11.5008 -7.14306 29.4857
rtibia 38.3372
rfoot -1.50142 -3.06327
rtoes 3.038
lfemur -37.8957 -0.456173 -12.6049
ltibia 48.2761
lfoot 18.7123 -4.94092
ltoes 23.35
458
root 7.85928 18.1331 -1.95102 -170.551 -4.62512 -175.912
lowerback 5.14074 9.46029 2.97929
upperback 0.967513 12.2701 -8.06888
thorax 0.61791 6.10604 -10.5047
lowerneck 4.84768 23.2203 6.14626
upperneck 0.268997 31.2548 -9.99977
head 2.02415 15.7244 -3.35886
rclavicle -7.39479e-014 1.17681e-013
rhumerus -34.2993 4.36639 -84.4199
rradius 52.9697
rwrist -4.72593
rhand -12.6425 -23.0934
rfingers 7.12502
rthumb 13.4378 -52.6399
lclavicle -7.39479e-014 1.17681e-013
lhumerus -38.4328 -59.8317 88.0599
lradius 82.733
lwrist 19.8084
lhand -3.92615 -3.72729
lfingers 7.12502
lthumb 21.8249 25.062
rfemur -11.3708 -7.43818 29.1958
rtibia 39.1297
rfoot 0.113392 -3.35353
rtoes 3.42442
lfemur -37.8306 -0.6286 -12.8296
ltibia 47.6006
lfoot 18.5198 -5.13586
ltoes 22.6373
459
root 7.86509 18.1286 -1.81342 -170.728 -4.75077 -175.911
lowerback 5.10218 9.44821 2.98543
upperback 1.06843 12.26 -8.00541
thorax 0.729677 6.10684 -10.4219
lowerneck 4.47342 23.367 5.80748
upperneck 0.556245 31.4338 -9.85445
head 2.11407 15.796 -3.20645
rclavicle -5.1684e-014 3.65764e-014
rhumerus -33.8504 5.13423 -84.2728
rradius 52.7249
rwrist -5.03312
rhand -12.4799 -23.3329
rfingers 7.12502
rthumb 13.5945 -52.8691
lclavicle -5.1684e-014 3.65764e-014
lhumerus -38.2742 -59.3923 87.891
lradius 83.1928
lwrist 19.7139
lhand -3.95125 -3.37462
lfingers 7.12502
lthumb 21.8008 25.4175
rfemur -11.2106 -7.69429 29.1382
rtibia 39.9458
rfoot 1.78935 -3.88128
rtoes 5.12865
lfemur -37.686 -0.839325 -12.7631
ltibia 46.8606
lfoot 18.319 -5.26055
ltoes 22.278
460
root 7.8661 18.127 -1.67879 -170.981 -4.83807 -175.966
lowerback 5.14938 9.44035 3.03955
upperback 1.12499 12.2507 -8.00169
thorax 0.772376 6.10455 -10.4503
lowerneck 4.4883 23.3715 5.74312
upperneck 0.67856 31.4376 -9.83414
head 2.13982 15.7942 -3.18869
rclavicle 3.73715e-014 5.24792e-014
rhumerus -33.6502 5.88182 -84.2276
rradius 52.5349
rwrist -5.1847
rhand -12.133 -23.4263
rfingers 7.12502
rthumb 13.9288 -52.9398
lclavicle 3.73715e-014 5.24792e-014
lhumerus -38.417 -58.8578 87.8545
lradius 83.662
lwrist 19.5665
lhand -4.04839 -3.38831
lfingers 7.12502
lthumb 21.7075 25.4146
rfemur -10.98 -7.97569 28.944
rtibia 40.7571
rfoot 3.82264 -4.4474
rtoes 8.26631
lfemur -37.4055 -1.12014 -12.7611
ltibia 46.0597
lfoot 18.1478 -5.23188
ltoes 22.7351
461
root 7.86423 18.1259 -1.54132 -171.163 -4.88721 -176.069
lowerback 5.20033 9.45952 3.12867
upperback 1.12714 12.2773 -8.0464
thorax 0.782203 6.11934 -10.5553
lowerneck 4.7502 23.3454 5.71262
upperneck 0.416394 31.3935 -9.99937
head 2.03178 15.7853 -3.28869
rclavicle 2.06736e-014 2.06736e-014
rhumerus -33.5146 6.7528 -84.1235
rradius 52.3304
rwrist -5.52179
rhand -11.973 -23.6677
rfingers 7.12502
rthumb 14.083 -53.1706
lclavicle 2.06736e-014 2.06736e-014
lhumerus -38.5874 -58.3117 87.94
lradius 84.0169
lwrist 19.2609
lhand -4.18223 -3.53504
lfingers 7.12502
lthumb 21.579 25.2827
rfemur -10.9158 -8.25269 28.6942
rtibia 41.5613
rfoot 5.9966 -4.88999
rtoes 10.4926
lfemur -37.1639 -1.45 -12.8011
ltibia 45.1984
lfoot 17.9768 -5.26722
ltoes 23.3706
462
root 7.8647 18.1205 -1.39999 -171.38 -4.98973 -176.056
lowerback 5.24893 9.49458 3.31927
upperback 1.18236 12.3391 -8.03814
thorax 0.86632 6.15928 -10.6507
lowerneck 4.63265 23.3231 5.75292
upperneck 0.617083 31.3724 -10.002
head 2.1246 15.7663 -3.26274
rclavicle 0 -6.20208e-014
rhumerus -33.3448 7.57245 -83.9679
rradius 52.1472
rwrist -5.93732
rhand -12.0369 -23.979
rfingers 7.12502
rthumb 14.0214 -53.486
lclavicle 0 -6.20208e-014
lhumerus -38.4551 -57.9404 87.9336
lradius 84.1601
lwrist 19.0109
lhand -4.23462 -3.5395
lfingers 7.12502
lthumb 21.5286 25.284
rfemur -10.9409 -8.53555 28.6187
rtibia 42.4108
rfoot 8.18993 -5.11842
rtoes 9.91451
lfemur -36.8677 -1.88307 -12.6702
ltibia 44.2432
lfoot 17.6797 -5.67877
ltoes 22.3535
463
root 7.86845 18.1148 -1.25844 -171.613 -5.14261 -176.148
lowerback 5.35464 9.52541 3.41437
upperback 1.213 12.3805 -8.07985
thorax 0.880403 6.18222 -10.7628
lowerneck 4.64092 23.3702 5.99632
upperneck 0.995307 31.463 -10.012
head 2.30301 15.8016 -3.24893
rclavicle -9.85972e-014 -1.59028e-015
rhumerus -33.3749 8.19098 -83.9195
rradius 52.1257
rwrist -6.16159
rhand -11.8622 -24.2262
rfingers 7.12502
rthumb 14.1898 -53.7215
lclavicle -9.85972e-014 -1.59028e-015
lhumerus -38.5395 -57.7207 87.8952
lradius 84.4467
lwrist 19.0205
lhand -5.30851 -4.84243
lfingers 7.12502
lthumb 20.497 24.0956
rfemur -11.0436 -8.80789 28.4445
rtibia 43.319
rfoot 10.6041 -5.42492
rtoes 9.60089
lfemur -36.469 -2.455 -12.6243
ltibia 43.1692
lfoot 17.2729 -5.9559
ltoes 21.8379
464
root 7.87147 18.1115 -1.10921 -171.691 -5.23519 -176.43
lowerback 5.35956 9.55945 3.26896
upperback 1.23384 12.4072 -8.13893
thorax 0.887884 6.19087 -10.7462
lowerneck 4.78478 23.2867 5.86127
upperneck 0.986385 31.3385 -9.86884
head 2.21697 15.7419 -3.23252
rclavicle 1.35174e-013 -4.29375e-014
rhumerus -33.2736 9.11251 -83.741
rradius 52.0437
rwrist -6.6467
rhand -11.5399 -24.6124
rfingers 7.12502
rthumb 14.5003 -54.0857
lclavicle 1.35174e-013 -4.29375e-014
lhumerus -38.6336 -57.4745 87.928
lradius 84.756
lwrist 19.0659
lhand -5.99391 -5.21151
lfingers 7.12502
lthumb 19.8382 23.796
rfemur -11.4051 -8.96502 28.059
rtibia 44.267
rfoot 12.1797 -6.00214
rtoes 8.75714
lfemur -36.1351 -3.09591 -12.756
ltibia 41.9579
lfoot 16.7963 -5.74752
ltoes 23.6315
